# Blender v2.79 (sub 0) OBJ File: 'crystals.blend'
# www.blender.org
mtllib crystalfive.mtl
o Crystal5_Cube.008
v 0.695493 0.000000 0.542705
v 0.695493 0.000000 0.813443
v 0.424755 0.000000 0.813443
v 0.424755 0.000000 0.542705
v 0.695493 0.647332 0.542705
v 0.695493 0.647332 0.813443
v 0.424755 0.647332 0.813443
v 0.424755 0.647332 0.542705
v 0.496209 0.000000 0.248894
v 0.496209 0.000000 0.471711
v 0.273392 0.000000 0.471711
v 0.273392 0.000000 0.248894
v 0.496209 0.570869 0.248894
v 0.496209 0.570869 0.471711
v 0.273392 0.570869 0.471711
v 0.273392 0.570869 0.248894
v 0.705129 -0.000000 0.283653
v 0.705129 -0.000000 0.437217
v 0.551565 -0.000000 0.437217
v 0.551565 -0.000000 0.283653
v 0.705129 0.393440 0.283653
v 0.705129 0.393440 0.437217
v 0.551565 0.393440 0.437217
v 0.551565 0.393440 0.283653
v 0.349533 0.000000 0.612710
v 0.217056 0.000000 0.612710
v 0.217056 0.000000 0.480233
v 0.349533 0.000000 0.480233
v 0.349533 0.339412 0.612710
v 0.217056 0.339412 0.612710
v 0.217056 0.339412 0.480233
v 0.349533 0.339412 0.480233
v 0.541446 0.000000 0.448893
v 0.541446 0.000000 0.644050
v 0.346290 0.000000 0.644050
v 0.346290 0.000000 0.448893
v 0.541446 0.500000 0.448894
v 0.541446 0.500000 0.644050
v 0.346290 0.500000 0.644050
v 0.346290 0.500000 0.448893
vt 1.000000 1.000000
vt 0.750000 1.000000
vt 0.750000 0.750000
vt 1.000000 0.750000
vt 0.500000 1.000000
vt 0.250000 1.000000
vt 0.250000 0.750000
vt 0.500000 0.750000
vt 0.750000 0.125000
vt 0.750000 0.750000
vt 0.500000 0.125000
vt 0.250000 0.125000
vt 0.000000 0.125000
vt 0.000000 0.750000
vt 0.250000 0.750000
vt 0.250000 0.125000
vt 1.000000 0.750000
vt 1.000000 0.125000
vt 0.750000 0.125000
vt 0.750000 0.750000
vt 1.000000 1.000000
vt 0.750000 1.000000
vt 0.750000 0.750000
vt 1.000000 0.750000
vt 0.500000 1.000000
vt 0.250000 1.000000
vt 0.250000 0.750000
vt 0.500000 0.750000
vt 0.750000 0.125000
vt 0.750000 0.750000
vt 0.500000 0.125000
vt 0.250000 0.125000
vt 0.000000 0.125000
vt 0.000000 0.750000
vt 0.250000 0.750000
vt 0.250000 0.125000
vt 1.000000 0.750000
vt 1.000000 0.125000
vt 0.750000 0.125000
vt 0.750000 0.750000
vt 1.000000 1.000000
vt 0.750000 1.000000
vt 0.750000 0.750000
vt 1.000000 0.750000
vt 0.500000 1.000000
vt 0.250000 1.000000
vt 0.250000 0.750000
vt 0.500000 0.750000
vt 0.750000 0.125000
vt 0.750000 0.750000
vt 0.500000 0.125000
vt 0.250000 0.125000
vt 0.000000 0.125000
vt 0.000000 0.750000
vt 0.250000 0.750000
vt 0.250000 0.125000
vt 1.000000 0.750000
vt 1.000000 0.125000
vt 0.750000 0.125000
vt 0.750000 0.750000
vt 1.000000 1.000000
vt 0.750000 1.000000
vt 0.750000 0.750000
vt 1.000000 0.750000
vt 0.500000 1.000000
vt 0.250000 1.000000
vt 0.250000 0.750000
vt 0.500000 0.750000
vt 0.750000 0.125000
vt 0.750000 0.750000
vt 0.500000 0.125000
vt 0.250000 0.125000
vt 0.000000 0.125000
vt 0.000000 0.750000
vt 0.250000 0.750000
vt 0.250000 0.125000
vt 1.000000 0.750000
vt 1.000000 0.125000
vt 0.750000 0.125000
vt 0.750000 0.750000
vt 1.000000 1.000000
vt 0.750000 1.000000
vt 0.750000 0.750000
vt 1.000000 0.750000
vt 0.500000 1.000000
vt 0.250000 1.000000
vt 0.250000 0.750000
vt 0.500000 0.750000
vt 0.750000 0.125000
vt 0.750000 0.750000
vt 0.500000 0.125000
vt 0.250000 0.125000
vt 0.000000 0.125000
vt 0.000000 0.750000
vt 0.250000 0.750000
vt 0.250000 0.125000
vt 1.000000 0.750000
vt 1.000000 0.125000
vt 0.750000 0.125000
vt 0.750000 0.750000
vn 0.0000 -1.0000 0.0000
vn 0.0000 1.0000 0.0000
vn 1.0000 -0.0000 0.0000
vn -0.0000 -0.0000 1.0000
vn -1.0000 -0.0000 -0.0000
vn 0.0000 0.0000 -1.0000
usemtl Material
s off
f 1/1/1 2/2/1 3/3/1 4/4/1
f 5/5/2 8/6/2 7/7/2 6/8/2
f 1/9/3 5/10/3 6/8/3 2/11/3
f 2/11/4 6/8/4 7/7/4 3/12/4
f 3/13/5 7/14/5 8/15/5 4/16/5
f 5/17/6 1/18/6 4/19/6 8/20/6
f 9/21/1 10/22/1 11/23/1 12/24/1
f 13/25/2 16/26/2 15/27/2 14/28/2
f 9/29/3 13/30/3 14/28/3 10/31/3
f 10/31/4 14/28/4 15/27/4 11/32/4
f 11/33/5 15/34/5 16/35/5 12/36/5
f 13/37/6 9/38/6 12/39/6 16/40/6
f 17/41/1 18/42/1 19/43/1 20/44/1
f 21/45/2 24/46/2 23/47/2 22/48/2
f 17/49/3 21/50/3 22/48/3 18/51/3
f 18/51/4 22/48/4 23/47/4 19/52/4
f 19/53/5 23/54/5 24/55/5 20/56/5
f 21/57/6 17/58/6 20/59/6 24/60/6
f 25/61/1 26/62/1 27/63/1 28/64/1
f 29/65/2 32/66/2 31/67/2 30/68/2
f 25/69/4 29/70/4 30/68/4 26/71/4
f 26/71/5 30/68/5 31/67/5 27/72/5
f 27/73/6 31/74/6 32/75/6 28/76/6
f 29/77/3 25/78/3 28/79/3 32/80/3
f 33/81/1 34/82/1 35/83/1 36/84/1
f 37/85/2 40/86/2 39/87/2 38/88/2
f 33/89/3 37/90/3 38/88/3 34/91/3
f 34/91/4 38/88/4 39/87/4 35/92/4
f 35/93/5 39/94/5 40/95/5 36/96/5
f 37/97/6 33/98/6 36/99/6 40/100/6
