# Blender v2.79 (sub 0) OBJ File: ''
# www.blender.org
mtllib Crystal1.mtl
o Crystal1_Cube
v -0.402422 0.000000 0.402422
v -0.402422 0.000000 0.597578
v -0.597578 0.000000 0.597578
v -0.597578 0.000000 0.402422
v -0.402422 0.500000 0.402422
v -0.402422 0.500000 0.597578
v -0.597578 0.500000 0.597578
v -0.597578 0.500000 0.402422
vt 1.000000 1.000000
vt 0.750000 1.000000
vt 0.750000 0.750000
vt 1.000000 0.750000
vt 0.500000 1.000000
vt 0.250000 1.000000
vt 0.250000 0.750000
vt 0.500000 0.750000
vt 0.750000 0.125000
vt 0.750000 0.750000
vt 0.500000 0.125000
vt 0.250000 0.125000
vt 0.000000 0.125000
vt 0.000000 0.750000
vt 0.250000 0.750000
vt 0.250000 0.125000
vt 1.000000 0.750000
vt 1.000000 0.125000
vt 0.750000 0.125000
vt 0.750000 0.750000
vn 0.0000 -1.0000 0.0000
vn 0.0000 1.0000 0.0000
vn 1.0000 0.0000 0.0000
vn 0.0000 -0.0000 1.0000
vn -1.0000 -0.0000 -0.0000
vn 0.0000 0.0000 -1.0000
usemtl Material
s off
f 1/1/1 2/2/1 3/3/1 4/4/1
f 5/5/2 8/6/2 7/7/2 6/8/2
f 1/9/3 5/10/3 6/8/3 2/11/3
f 2/11/4 6/8/4 7/7/4 3/12/4
f 3/13/5 7/14/5 8/15/5 4/16/5
f 5/17/6 1/18/6 4/19/6 8/20/6
