# Blender v2.79 (sub 0) OBJ File: ''
# www.blender.org
mtllib scheelite_crystal_three.mtl
o Crystal1.002_Cube.006
v -0.238739 -0.000000 0.237181
v -0.238739 -0.000000 0.390746
v -0.392303 -0.000000 0.390746
v -0.392303 -0.000000 0.237181
v -0.238739 0.393440 0.237181
v -0.238739 0.393440 0.390746
v -0.392304 0.393440 0.390746
v -0.392303 0.393440 0.237181
vt 1.000000 1.000000
vt 0.750000 1.000000
vt 0.750000 0.750000
vt 1.000000 0.750000
vt 0.500000 1.000000
vt 0.250000 1.000000
vt 0.250000 0.750000
vt 0.500000 0.750000
vt 0.750000 0.125000
vt 0.750000 0.750000
vt 0.500000 0.125000
vt 0.250000 0.125000
vt 0.000000 0.125000
vt 0.000000 0.750000
vt 0.250000 0.750000
vt 0.250000 0.125000
vt 1.000000 0.750000
vt 1.000000 0.125000
vt 0.750000 0.125000
vt 0.750000 0.750000
vn 0.0000 -1.0000 0.0000
vn 0.0000 1.0000 0.0000
vn 1.0000 0.0000 0.0000
vn 0.0000 -0.0000 1.0000
vn -1.0000 -0.0000 -0.0000
vn 0.0000 0.0000 -1.0000
usemtl Material
s off
f 1/1/1 2/2/1 3/3/1 4/4/1
f 5/5/2 8/6/2 7/7/2 6/8/2
f 1/9/3 5/10/3 6/8/3 2/11/3
f 2/11/4 6/8/4 7/7/4 3/12/4
f 3/13/5 7/14/5 8/15/5 4/16/5
f 5/17/6 1/18/6 4/19/6 8/20/6
o Crystal1.001_Cube.005
v -0.594335 0.000000 0.566238
v -0.726812 0.000000 0.566238
v -0.726812 0.000000 0.433762
v -0.594335 0.000000 0.433762
v -0.594335 0.339412 0.566238
v -0.726812 0.339412 0.566238
v -0.726812 0.339412 0.433762
v -0.594335 0.339412 0.433762
vt 1.000000 1.000000
vt 0.750000 1.000000
vt 0.750000 0.750000
vt 1.000000 0.750000
vt 0.500000 1.000000
vt 0.250000 1.000000
vt 0.250000 0.750000
vt 0.500000 0.750000
vt 0.750000 0.125000
vt 0.750000 0.750000
vt 0.500000 0.125000
vt 0.250000 0.125000
vt 0.000000 0.125000
vt 0.000000 0.750000
vt 0.250000 0.750000
vt 0.250000 0.125000
vt 1.000000 0.750000
vt 1.000000 0.125000
vt 0.750000 0.125000
vt 0.750000 0.750000
vn 0.0000 -1.0000 0.0000
vn 0.0000 1.0000 0.0000
vn -0.0000 0.0000 1.0000
vn -1.0000 0.0000 -0.0000
vn 0.0000 -0.0000 -1.0000
vn 1.0000 0.0000 0.0000
usemtl Material
s off
f 9/21/7 10/22/7 11/23/7 12/24/7
f 13/25/8 16/26/8 15/27/8 14/28/8
f 9/29/9 13/30/9 14/28/9 10/31/9
f 10/31/10 14/28/10 15/27/10 11/32/10
f 11/33/11 15/34/11 16/35/11 12/36/11
f 13/37/12 9/38/12 12/39/12 16/40/12
o Crystal1_Cube
v -0.402422 0.000000 0.402422
v -0.402422 0.000000 0.597578
v -0.597578 0.000000 0.597578
v -0.597578 0.000000 0.402422
v -0.402422 0.500000 0.402422
v -0.402422 0.500000 0.597578
v -0.597578 0.500000 0.597578
v -0.597578 0.500000 0.402422
vt 1.000000 1.000000
vt 0.750000 1.000000
vt 0.750000 0.750000
vt 1.000000 0.750000
vt 0.500000 1.000000
vt 0.250000 1.000000
vt 0.250000 0.750000
vt 0.500000 0.750000
vt 0.750000 0.125000
vt 0.750000 0.750000
vt 0.500000 0.125000
vt 0.250000 0.125000
vt 0.000000 0.125000
vt 0.000000 0.750000
vt 0.250000 0.750000
vt 0.250000 0.125000
vt 1.000000 0.750000
vt 1.000000 0.125000
vt 0.750000 0.125000
vt 0.750000 0.750000
vn 0.0000 -1.0000 0.0000
vn 0.0000 1.0000 0.0000
vn 1.0000 0.0000 0.0000
vn 0.0000 -0.0000 1.0000
vn -1.0000 -0.0000 -0.0000
vn 0.0000 0.0000 -1.0000
usemtl Material
s off
f 17/41/13 18/42/13 19/43/13 20/44/13
f 21/45/14 24/46/14 23/47/14 22/48/14
f 17/49/15 21/50/15 22/48/15 18/51/15
f 18/51/16 22/48/16 23/47/16 19/52/16
f 19/53/17 23/54/17 24/55/17 20/56/17
f 21/57/18 17/58/18 20/59/18 24/60/18
