# Blender v2.79 (sub 0) OBJ File: 'crystals.blend'
# www.blender.org
mtllib cassiterite_crystal_three.mtl
o Crystal5_Cube.008
v 0.588468 0.000000 0.510449
v 0.588468 0.000000 0.662146
v 0.436772 0.000000 0.662146
v 0.436772 0.000000 0.510449
v 0.588468 0.436105 0.510449
v 0.588468 0.436105 0.662146
v 0.436772 0.436105 0.662146
v 0.436772 0.436105 0.510449
v 0.576474 -0.000000 0.426318
v 0.576474 -0.000000 0.515712
v 0.487080 -0.000000 0.515712
v 0.487080 -0.000000 0.426318
v 0.576474 0.175906 0.426318
v 0.576474 0.175906 0.515712
v 0.487080 0.175906 0.515712
v 0.487080 0.175906 0.426318
v 0.445581 0.000000 0.658556
v 0.392533 0.000000 0.658557
v 0.392533 0.000000 0.605508
v 0.445581 0.000000 0.605508
v 0.445581 0.100170 0.658557
v 0.392533 0.100170 0.658556
v 0.392533 0.100170 0.605508
v 0.445581 0.100170 0.605508
vt 1.000000 1.000000
vt 0.750000 1.000000
vt 0.750000 0.750000
vt 1.000000 0.750000
vt 0.500000 1.000000
vt 0.250000 1.000000
vt 0.250000 0.750000
vt 0.500000 0.750000
vt 0.750000 0.125000
vt 0.750000 0.750000
vt 0.500000 0.125000
vt 0.250000 0.125000
vt 0.000000 0.125000
vt 0.000000 0.750000
vt 0.250000 0.750000
vt 0.250000 0.125000
vt 1.000000 0.750000
vt 1.000000 0.125000
vt 0.750000 0.125000
vt 0.750000 0.750000
vt 1.000000 1.000000
vt 0.750000 1.000000
vt 0.750000 0.750000
vt 1.000000 0.750000
vt 0.500000 1.000000
vt 0.250000 1.000000
vt 0.250000 0.750000
vt 0.500000 0.750000
vt 0.750000 0.125000
vt 0.750000 0.750000
vt 0.500000 0.125000
vt 0.250000 0.125000
vt 0.000000 0.125000
vt 0.000000 0.750000
vt 0.250000 0.750000
vt 0.250000 0.125000
vt 1.000000 0.750000
vt 1.000000 0.125000
vt 0.750000 0.125000
vt 0.750000 0.750000
vt 1.000000 1.000000
vt 0.750000 1.000000
vt 0.750000 0.750000
vt 1.000000 0.750000
vt 0.500000 1.000000
vt 0.250000 1.000000
vt 0.250000 0.750000
vt 0.500000 0.750000
vt 0.750000 0.125000
vt 0.750000 0.750000
vt 0.500000 0.125000
vt 0.250000 0.125000
vt 0.000000 0.125000
vt 0.000000 0.750000
vt 0.250000 0.750000
vt 0.250000 0.125000
vt 1.000000 0.750000
vt 1.000000 0.125000
vt 0.750000 0.125000
vt 0.750000 0.750000
vn 0.0000 -1.0000 0.0000
vn 0.0000 1.0000 0.0000
vn 1.0000 -0.0000 0.0000
vn -0.0000 -0.0000 1.0000
vn -1.0000 -0.0000 -0.0000
vn 0.0000 0.0000 -1.0000
usemtl Material
s off
f 1/1/1 2/2/1 3/3/1 4/4/1
f 5/5/2 8/6/2 7/7/2 6/8/2
f 1/9/3 5/10/3 6/8/3 2/11/3
f 2/11/4 6/8/4 7/7/4 3/12/4
f 3/13/5 7/14/5 8/15/5 4/16/5
f 5/17/6 1/18/6 4/19/6 8/20/6
f 9/21/1 10/22/1 11/23/1 12/24/1
f 13/25/2 16/26/2 15/27/2 14/28/2
f 9/29/3 13/30/3 14/28/3 10/31/3
f 10/31/4 14/28/4 15/27/4 11/32/4
f 11/33/5 15/34/5 16/35/5 12/36/5
f 13/37/6 9/38/6 12/39/6 16/40/6
f 17/41/1 18/42/1 19/43/1 20/44/1
f 21/45/2 24/46/2 23/47/2 22/48/2
f 17/49/4 21/50/4 22/48/4 18/51/4
f 18/51/5 22/48/5 23/47/5 19/52/5
f 19/53/6 23/54/6 24/55/6 20/56/6
f 21/57/3 17/58/3 20/59/3 24/60/3
