# Blender v2.79 (sub 0) OBJ File: 'crystals.blend'
# www.blender.org
mtllib sphalerite_crystal_one.mtl

usemtl Material
o Crystal5_Cube.008
v 0.550758 0.000000 0.456661
v 0.550758 0.000000 0.532937
v 0.474482 0.000000 0.532937
v 0.474482 0.000000 0.456661
v 0.550758 0.253857 0.456661
v 0.550757 0.253857 0.532937
v 0.474482 0.253857 0.532937
v 0.474482 0.253857 0.456661
vt 1.000000 1.000000
vt 0.750000 1.000000
vt 0.750000 0.750000
vt 1.000000 0.750000
vt 0.500000 1.000000
vt 0.250000 1.000000
vt 0.250000 0.750000
vt 0.500000 0.750000
vt 0.750000 0.125000
vt 0.750000 0.750000
vt 0.500000 0.125000
vt 0.250000 0.125000
vt 0.000000 0.125000
vt 0.000000 0.750000
vt 0.250000 0.750000
vt 0.250000 0.125000
vt 1.000000 0.750000
vt 1.000000 0.125000
vt 0.750000 0.125000
vt 0.750000 0.750000
vn 0.0000 -1.0000 0.0000
vn 0.0000 1.0000 0.0000
vn 1.0000 0.0000 0.0000
vn -0.0000 0.0000 1.0000
vn -1.0000 0.0000 -0.0000
vn 0.0000 0.0000 -1.0000
f 1/1/1 2/2/1 3/3/1 4/4/1
f 5/5/2 8/6/2 7/7/2 6/8/2
f 1/9/3 5/10/3 6/8/3 2/11/3
f 2/11/4 6/8/4 7/7/4 3/12/4
f 3/13/5 7/14/5 8/15/5 4/16/5
f 5/17/6 1/18/6 4/19/6 8/20/6